<?xml version="1.0" encoding="UTF-8" ?>
<!DOCTYPE svg PUBLIC "-//W3C//DTD SVG 1.1//EN" "http://www.w3.org/Graphics/SVG/1.1/DTD/svg11.dtd">
<svg width="419pt" height="549pt" viewBox="0 0 419 549" version="1.1" xmlns="http://www.w3.org/2000/svg">
<g id="#77c159ff">
<path fill="#77c159" opacity="1.00" d=" M 69.01 12.86 C 74.95 12.04 80.96 12.13 86.94 12.13 C 170.96 12.15 254.99 12.11 339.01 12.15 C 362.85 11.87 386.41 23.08 401.32 41.67 C 411.84 54.52 417.88 70.72 419.00 87.25 L 419.00 515.59 C 418.22 523.45 414.00 531.00 407.31 535.30 C 399.48 540.71 388.69 541.12 380.35 536.63 C 323.41 507.43 266.46 478.24 209.53 449.04 C 154.31 477.30 99.14 505.63 43.94 533.92 C 40.10 535.82 36.38 538.15 32.14 539.04 C 24.49 540.84 16.08 538.99 9.96 534.05 C 4.25 529.67 0.80 522.81 0.00 515.72 L 0.00 87.52 C 1.10 69.25 8.42 51.37 20.92 37.94 C 33.36 24.30 50.69 15.20 69.01 12.86 M 52.50 91.13 C 52.44 217.61 52.48 344.10 52.48 470.59 C 100.77 445.85 149.04 421.07 197.35 396.35 C 204.80 392.39 214.16 392.39 221.62 396.34 C 269.93 421.06 318.21 445.85 366.52 470.59 C 366.53 344.04 366.56 217.48 366.50 90.93 C 366.51 76.89 353.96 64.44 339.91 64.62 C 252.95 64.59 165.98 64.58 79.02 64.62 C 64.93 64.47 52.38 77.04 52.50 91.13 Z" />
<path fill="#77c159" opacity="1.00" d=" M 205.54 138.31 C 216.65 136.42 228.44 142.69 233.18 152.89 C 235.54 157.55 235.92 162.87 235.77 168.01 C 235.76 180.53 235.77 193.06 235.77 205.58 C 249.83 205.65 263.90 205.55 277.96 205.63 C 289.95 205.73 300.92 215.18 302.95 226.96 C 304.83 236.36 300.95 246.54 293.39 252.39 C 288.76 256.06 282.86 258.06 276.96 258.00 C 263.23 258.01 249.50 257.99 235.77 258.01 C 235.72 272.02 235.83 286.04 235.72 300.05 C 235.59 308.65 230.84 316.96 223.56 321.53 C 215.03 327.09 203.23 326.93 194.85 321.14 C 187.91 316.50 183.38 308.40 183.31 300.02 C 183.26 286.02 183.32 272.01 183.29 258.01 C 168.85 257.93 154.40 258.11 139.96 257.92 C 126.41 257.31 114.92 244.68 115.60 231.11 C 115.66 218.01 126.93 206.27 140.01 205.68 C 154.44 205.48 168.87 205.68 183.29 205.58 C 183.32 191.37 183.23 177.17 183.34 162.96 C 183.64 150.83 193.54 139.93 205.54 138.31 Z" />
</g>
</svg>
