<?xml version="1.0" encoding="UTF-8" ?>
<!DOCTYPE svg PUBLIC "-//W3C//DTD SVG 1.1//EN" "http://www.w3.org/Graphics/SVG/1.1/DTD/svg11.dtd">
<svg width="119pt" height="115pt" viewBox="0 0 119 115" version="1.1" xmlns="http://www.w3.org/2000/svg">
<g id="#77c159ff">
<path fill="#77c159" opacity="1.00" d=" M 45.70 2.72 C 46.59 1.83 47.51 0.62 48.96 0.91 C 56.53 1.10 64.19 0.53 71.70 1.19 C 75.65 5.04 79.55 8.96 83.39 12.93 C 83.34 16.84 83.37 20.75 83.36 24.66 C 91.57 24.74 99.77 24.54 107.97 24.75 C 113.57 24.98 118.31 29.74 119.00 35.21 L 119.00 103.80 C 118.15 109.49 112.96 114.34 107.08 114.08 C 75.38 114.09 43.67 114.09 11.97 114.08 C 6.07 114.36 0.85 109.47 0.00 103.76 L 0.00 35.25 C 0.69 29.77 5.40 24.98 11.02 24.78 C 19.22 24.51 27.43 24.75 35.64 24.66 C 35.63 20.75 35.65 16.83 35.62 12.92 C 38.91 9.45 42.38 6.16 45.70 2.72 M 47.68 12.85 C 47.66 16.79 47.68 20.72 47.66 24.66 C 55.55 24.67 63.45 24.67 71.34 24.66 C 71.32 20.72 71.34 16.79 71.32 12.86 C 63.44 12.85 55.56 12.85 47.68 12.85 M 81.36 45.73 C 71.16 56.12 60.88 66.44 50.48 76.62 C 46.41 72.40 42.22 68.30 38.09 64.15 C 35.34 66.86 32.66 69.64 29.87 72.32 C 36.59 79.37 43.69 86.05 50.41 93.10 C 63.73 80.27 76.62 66.96 89.74 53.92 C 86.93 51.21 84.34 48.26 81.36 45.73 Z" />
</g>
</svg>
