<?xml version="1.0" encoding="UTF-8" ?>
<!DOCTYPE svg PUBLIC "-//W3C//DTD SVG 1.1//EN" "http://www.w3.org/Graphics/SVG/1.1/DTD/svg11.dtd">
<svg width="419pt" height="549pt" viewBox="0 0 419 549" version="1.1" xmlns="http://www.w3.org/2000/svg">
<g id="#77c159ff">
<path fill="#77c159" opacity="1.00" d=" M 49.15 18.17 C 59.19 13.97 70.11 12.04 80.99 12.14 C 167.32 12.15 253.65 12.09 339.98 12.16 C 362.06 12.17 383.86 22.00 398.56 38.46 C 410.65 51.66 417.68 69.06 419.00 86.85 L 419.00 515.87 C 418.10 523.37 414.22 530.60 407.90 534.89 C 400.05 540.65 388.96 541.25 380.42 536.67 C 323.46 507.45 266.49 478.27 209.55 449.04 C 154.32 477.28 99.15 505.63 43.95 533.91 C 40.11 535.83 36.37 538.15 32.12 539.05 C 24.25 540.90 15.58 538.86 9.41 533.61 C 4.09 529.31 0.94 522.80 0.00 516.10 L 0.00 87.08 C 0.80 78.20 2.56 69.36 6.07 61.13 C 14.03 41.88 29.87 26.08 49.15 18.17 M 52.50 91.10 C 52.44 217.60 52.47 344.09 52.49 470.59 C 100.79 445.84 149.06 421.06 197.37 396.34 C 204.83 392.39 214.18 392.40 221.64 396.34 C 269.94 421.07 318.22 445.85 366.51 470.59 C 366.53 344.03 366.56 217.48 366.50 90.92 C 366.51 76.93 354.03 64.50 340.02 64.63 C 253.02 64.58 166.02 64.58 79.03 64.62 C 64.94 64.47 52.39 77.03 52.50 91.10 Z" />
<path fill="#77c159" opacity="1.00" d=" M 288.40 151.59 C 297.64 150.20 307.40 154.73 312.29 162.70 C 318.16 171.74 316.86 184.62 309.25 192.27 C 273.41 228.10 237.54 263.90 201.66 299.68 C 192.86 308.77 176.93 308.91 167.99 299.96 C 149.93 282.00 131.89 264.01 113.91 245.97 C 105.05 237.01 105.31 221.08 114.45 212.41 C 122.98 203.43 138.52 202.94 147.61 211.35 C 158.60 222.06 169.32 233.04 180.25 243.81 C 181.69 245.30 183.88 246.06 185.93 245.58 C 188.34 245.14 189.84 242.99 191.53 241.42 C 219.19 213.79 246.87 186.17 274.55 158.55 C 278.26 154.82 283.18 152.33 288.40 151.59 Z" />
</g>
</svg>
