<?xml version="1.0" encoding="UTF-8" ?>
<!DOCTYPE svg PUBLIC "-//W3C//DTD SVG 1.1//EN" "http://www.w3.org/Graphics/SVG/1.1/DTD/svg11.dtd">
<svg width="126pt" height="57pt" viewBox="0 0 126 57" version="1.1" xmlns="http://www.w3.org/2000/svg">
<g id="#77c159ff">
<path fill="#77c159" opacity="1.00" d=" M 0.00 1.00 C 22.69 1.01 45.37 0.97 68.06 1.02 C 68.09 4.76 68.09 8.49 68.05 12.23 C 45.37 12.28 22.68 12.24 0.00 12.25 L 0.00 1.00 Z" />
<path fill="#77c159" opacity="1.00" d=" M 73.95 7.91 C 76.28 5.26 78.73 2.71 81.08 0.07 L 81.78 0.46 C 96.17 16.43 110.81 32.17 125.20 48.14 L 126.00 48.62 L 126.00 49.11 C 123.47 51.50 121.56 54.57 118.62 56.50 C 118.65 56.62 118.69 56.87 118.71 57.00 L 118.35 57.00 L 118.40 56.71 C 103.81 40.50 88.69 24.20 73.95 7.91 Z" />
<path fill="#77c159" opacity="1.00" d=" M 10.14 15.94 C 32.87 15.89 55.61 15.91 78.34 15.93 C 78.38 19.64 78.39 23.36 78.34 27.07 C 55.60 27.03 32.85 27.22 10.13 26.98 C 10.13 23.30 10.11 19.62 10.14 15.94 Z" />
<path fill="#77c159" opacity="1.00" d=" M 0.00 30.75 C 22.68 30.76 45.37 30.72 68.05 30.77 C 68.10 34.50 68.09 38.24 68.06 41.98 C 45.37 42.02 22.69 41.99 0.00 42.00 L 0.00 30.75 Z" />
<path fill="#77c159" opacity="1.00" d=" M 3.38 45.69 C 26.09 45.66 48.80 45.65 71.51 45.69 C 71.35 49.45 72.07 53.36 71.13 57.00 L 3.41 57.00 C 3.27 53.23 3.31 49.46 3.38 45.69 Z" />
</g>
</svg>
