<?xml version="1.0" encoding="UTF-8" ?>
<!DOCTYPE svg PUBLIC "-//W3C//DTD SVG 1.1//EN" "http://www.w3.org/Graphics/SVG/1.1/DTD/svg11.dtd">
<svg width="419pt" height="549pt" viewBox="0 0 419 549" version="1.1" xmlns="http://www.w3.org/2000/svg">
<g id="#77c159ff">
<path fill="#77c159" opacity="1.00" d=" M 29.01 30.27 C 43.20 18.48 61.59 12.01 80.02 12.15 C 166.35 12.12 252.68 12.12 339.01 12.15 C 361.42 11.91 383.65 21.74 398.56 38.46 C 410.63 51.64 417.66 69.01 419.00 86.77 L 419.00 516.03 C 418.03 523.46 414.19 530.62 407.92 534.88 C 400.04 540.66 388.91 541.25 380.34 536.63 C 323.42 507.42 266.47 478.28 209.57 449.04 C 154.54 477.14 99.59 505.42 44.59 533.58 C 40.51 535.59 36.58 538.10 32.08 539.06 C 24.22 540.89 15.58 538.85 9.42 533.62 C 4.11 529.34 0.99 522.87 0.00 516.20 L 0.00 86.96 C 1.44 65.14 11.98 44.07 29.01 30.27 M 52.50 91.02 C 52.44 217.55 52.47 344.07 52.49 470.59 C 100.78 445.84 149.05 421.07 197.36 396.35 C 204.81 392.39 214.18 392.39 221.64 396.34 C 269.94 421.07 318.22 445.84 366.51 470.59 C 366.53 344.04 366.56 217.48 366.50 90.92 C 366.51 76.91 353.99 64.47 339.96 64.63 C 252.99 64.58 166.01 64.58 79.03 64.63 C 64.97 64.47 52.44 76.97 52.50 91.02 Z" />
<path fill="#77c159" opacity="1.00" d=" M 138.54 171.57 C 143.13 162.78 153.05 157.15 162.96 157.78 C 169.49 158.05 175.81 160.97 180.39 165.62 C 190.05 175.32 199.80 184.95 209.41 194.70 C 219.79 184.66 229.76 174.20 240.16 164.19 C 250.15 155.11 267.04 155.92 276.18 165.83 C 285.67 175.26 285.94 191.98 276.70 201.68 C 266.74 211.79 256.61 221.75 246.62 231.84 C 256.66 241.97 266.86 251.95 276.83 262.15 C 286.05 271.89 285.68 288.72 276.04 298.04 C 266.78 307.93 249.76 308.47 239.90 299.18 C 229.69 289.19 219.67 279.00 209.55 268.92 C 199.55 278.80 189.69 288.82 179.69 298.70 C 173.07 305.10 162.93 307.42 154.15 304.71 C 144.79 301.98 137.38 293.62 135.86 283.98 C 134.38 275.76 137.20 266.95 143.14 261.09 C 152.87 251.31 162.65 241.57 172.40 231.81 C 163.91 223.24 155.35 214.75 146.84 206.21 C 144.01 203.35 140.92 200.62 138.96 197.05 C 134.46 189.38 134.26 179.38 138.54 171.57 Z" />
</g>
</svg>
