<?xml version="1.0" encoding="UTF-8" ?>
<!DOCTYPE svg PUBLIC "-//W3C//DTD SVG 1.1//EN" "http://www.w3.org/Graphics/SVG/1.1/DTD/svg11.dtd">
<svg width="146pt" height="138pt" viewBox="0 0 146 138" version="1.1" xmlns="http://www.w3.org/2000/svg">
<g id="#000000ff">
<path fill="#e7e7e7" opacity="1.00" d=" M 71.92 0.00 L 74.65 0.00 C 76.24 1.01 77.78 2.24 78.56 4.01 C 83.52 14.03 88.53 24.02 93.48 34.03 C 94.74 36.50 95.76 39.15 97.60 41.27 C 98.76 42.36 100.42 42.54 101.90 42.85 C 114.89 44.74 127.91 46.51 140.88 48.47 C 143.14 48.67 144.69 50.41 146.00 52.08 L 146.00 55.62 C 143.84 58.87 140.84 61.39 138.06 64.07 C 130.93 70.92 123.87 77.82 116.70 84.62 C 115.03 86.33 112.78 88.25 113.31 90.94 C 115.29 104.69 118.22 118.32 120.19 132.07 C 120.69 134.80 118.34 136.60 116.42 138.00 L 113.36 138.00 C 100.69 131.66 88.26 124.82 75.58 118.49 C 73.19 117.09 70.57 118.29 68.38 119.45 C 56.57 125.69 44.68 131.77 32.87 138.00 L 30.19 138.00 C 27.30 137.06 25.09 134.21 25.94 131.07 C 28.03 117.70 30.73 104.40 32.71 91.01 C 33.27 88.35 31.11 86.40 29.43 84.71 C 22.05 77.72 14.79 70.61 7.46 63.58 C 4.86 61.11 2.20 58.67 0.00 55.83 L 0.00 52.51 C 1.08 50.53 2.71 48.69 5.10 48.49 C 18.38 46.44 31.72 44.72 45.01 42.68 C 47.25 42.49 49.10 41.04 50.02 39.02 C 55.26 28.64 60.42 18.21 65.59 7.80 C 67.12 4.81 68.32 1.04 71.92 0.00 Z" />
</g>
</svg>
